# xmcd
#
# Track frame offsets: 
#        150
#        18842
#        35456
#        52743
#
# Disc length: 924 seconds
#
# Revision: 0
# Processed by: cddbd v1.5.2PL0 Copyright (c) Steve Scherf et al.
# Submitted via: ExactAudioCopyFreeDBPlugin 1.0
#
DISCID=21039a04
DTITLE=王菀之 - Atmosphere
DYEAR=1900
DGENRE=Pop
TTITLE0=Made of Water
TTITLE1=留白
TTITLE2=皇后餐廳
TTITLE3=生命之花
EXTD=
EXTT0=
EXTT1=
EXTT2=
EXTT3=
PLAYORDER=
